<svg width="70" height="70" viewBox="0 0 70 70" fill="none" xmlns="http://www.w3.org/2000/svg">
<g filter="url(#filter0_d_298_2754)">
<rect x="5" y="2" width="60" height="60" rx="10" fill="white"/>
<g filter="url(#filter1_ddii_298_2754)">
<path d="M19.588 38.1991C18.5129 38.1991 17.5041 38 16.5618 37.6018C15.6327 37.1904 14.8164 36.6263 14.113 35.9095C13.4228 35.1795 12.8786 34.3301 12.4804 33.3612C12.0955 32.3923 11.903 31.3437 11.903 30.2155C11.903 29.1006 12.0955 28.0654 12.4804 27.1097C12.8786 26.1408 13.4228 25.298 14.113 24.5813C14.8164 23.8513 15.6327 23.2805 16.5618 22.8691C17.4909 22.4576 18.4996 22.2519 19.588 22.2519C20.61 22.2519 21.486 22.3846 22.216 22.6501C22.9592 22.9155 23.7025 23.3535 24.4458 23.9641C24.552 24.0437 24.6316 24.13 24.6847 24.2229C24.751 24.3025 24.7909 24.3888 24.8041 24.4817C24.8307 24.5614 24.844 24.6609 24.844 24.7804C24.844 25.0325 24.751 25.2449 24.5652 25.4175C24.3927 25.5767 24.1803 25.6696 23.9281 25.6962C23.676 25.7095 23.4304 25.6232 23.1915 25.4374C22.7004 25.0126 22.1894 24.6875 21.6585 24.4618C21.1409 24.2362 20.4507 24.1234 19.588 24.1234C18.8049 24.1234 18.0682 24.2826 17.378 24.6012C16.6879 24.9197 16.0773 25.3577 15.5464 25.9152C15.0288 26.4726 14.624 27.123 14.332 27.8663C14.04 28.5963 13.894 29.3794 13.894 30.2155C13.894 31.065 14.04 31.8614 14.332 32.6046C14.624 33.3346 15.0288 33.9784 15.5464 34.5358C16.0773 35.0933 16.6879 35.5313 17.378 35.8498C18.0682 36.1551 18.8049 36.3077 19.588 36.3077C20.2649 36.3077 20.902 36.1949 21.4992 35.9693C22.1098 35.7304 22.6938 35.4052 23.2512 34.9937C23.4901 34.8212 23.7224 34.7482 23.948 34.7747C24.187 34.788 24.386 34.8809 24.5453 35.0535C24.7046 35.2127 24.7842 35.4384 24.7842 35.7304C24.7842 35.8631 24.7577 35.9958 24.7046 36.1285C24.6515 36.248 24.5719 36.3608 24.4657 36.467C23.749 37.0377 22.9791 37.4691 22.1562 37.7611C21.3466 38.0531 20.4905 38.1991 19.588 38.1991ZM29.1313 38C28.8393 38 28.5937 37.9005 28.3946 37.7014C28.1955 37.5023 28.096 37.2567 28.096 36.9647V23.4863C28.096 23.181 28.1955 22.9355 28.3946 22.7496C28.5937 22.5505 28.8393 22.451 29.1313 22.451C29.5294 22.451 29.8347 22.6368 30.0471 23.0085L36.2786 35.4915H35.6415L41.7138 23.0085C41.9262 22.6368 42.2314 22.451 42.6296 22.451C42.9216 22.451 43.1672 22.5505 43.3663 22.7496C43.5653 22.9355 43.6649 23.181 43.6649 23.4863V36.9647C43.6649 37.2567 43.5587 37.5023 43.3463 37.7014C43.1473 37.9005 42.9083 38 42.6296 38C42.3376 38 42.0921 37.9005 41.893 37.7014C41.6939 37.5023 41.5943 37.2567 41.5943 36.9647V26.3532L41.9925 26.2536L36.7763 36.8851C36.5507 37.2302 36.2521 37.4027 35.8804 37.4027C35.4424 37.4027 35.1239 37.197 34.9248 36.7855L29.7683 26.4527L30.1665 26.3532V36.9647C30.1665 37.2567 30.067 37.5023 29.8679 37.7014C29.6688 37.9005 29.4233 38 29.1313 38ZM52.5926 38.1991C51.7431 38.1991 50.9335 38.0664 50.1636 37.8009C49.3938 37.5355 48.7236 37.1638 48.1528 36.686C47.5821 36.2082 47.164 35.6574 46.8986 35.0335C46.7658 34.7548 46.7658 34.496 46.8986 34.2571C47.0446 34.0182 47.2835 33.8655 47.6153 33.7992C47.8542 33.7461 48.0865 33.7859 48.3121 33.9186C48.551 34.0381 48.7302 34.2239 48.8496 34.4761C49.0089 34.8079 49.2677 35.1132 49.6261 35.3919C49.9977 35.6706 50.4424 35.8963 50.96 36.0688C51.4776 36.2414 52.0218 36.3276 52.5926 36.3276C53.2296 36.3276 53.8136 36.2281 54.3446 36.029C54.8887 35.8299 55.3267 35.5445 55.6586 35.1729C55.9904 34.788 56.1563 34.3168 56.1563 33.7594C56.1563 33.0559 55.8776 32.4255 55.3201 31.868C54.7759 31.3105 53.8734 30.9655 52.6125 30.8327C50.9666 30.6735 49.6726 30.189 48.7302 29.3794C47.7878 28.5697 47.3166 27.5676 47.3166 26.3731C47.3166 25.4971 47.5622 24.7538 48.0533 24.1433C48.5444 23.5327 49.208 23.0682 50.0442 22.7496C50.8936 22.4311 51.836 22.2718 52.8713 22.2718C53.6809 22.2718 54.3844 22.3846 54.9816 22.6103C55.5922 22.8359 56.1231 23.1478 56.5744 23.546C57.0256 23.9442 57.4172 24.4154 57.749 24.9595C57.9348 25.2515 58.0078 25.5303 57.968 25.7957C57.9415 26.0479 57.8154 26.247 57.5897 26.393C57.3376 26.5523 57.0655 26.5855 56.7735 26.4925C56.4815 26.3996 56.2625 26.2271 56.1165 25.9749C55.9041 25.59 55.6453 25.2648 55.34 24.9994C55.0347 24.7339 54.6764 24.5282 54.2649 24.3822C53.8535 24.2229 53.369 24.1433 52.8116 24.1433C51.8294 24.13 51.0065 24.3158 50.3428 24.7007C49.6792 25.0724 49.3474 25.6497 49.3474 26.4328C49.3474 26.831 49.4469 27.2159 49.646 27.5875C49.8584 27.9459 50.2366 28.2578 50.7808 28.5233C51.3383 28.7887 52.1346 28.9745 53.1699 29.0807C54.7494 29.24 55.9771 29.7245 56.8531 30.5341C57.7424 31.3305 58.187 32.3856 58.187 33.6996C58.187 34.4562 58.0277 35.1132 57.7092 35.6706C57.4039 36.2281 56.9858 36.6993 56.4549 37.0842C55.9373 37.4558 55.34 37.7345 54.6631 37.9204C53.9995 38.1062 53.3093 38.1991 52.5926 38.1991Z" fill="url(#paint0_linear_298_2754)"/>
<path d="M16.5618 37.6018L16.1568 38.5162L16.1647 38.5196L16.1726 38.523L16.5618 37.6018ZM14.113 35.9095L13.3863 36.5966L13.3927 36.6033L13.3993 36.61L14.113 35.9095ZM12.4804 33.3612L11.551 33.7304L11.5555 33.7413L12.4804 33.3612ZM12.4804 27.1097L11.5554 26.7296L11.5528 26.7361L12.4804 27.1097ZM14.113 24.5813L13.3929 23.8874L13.3926 23.8876L14.113 24.5813ZM16.5618 22.8691L16.1568 21.9547L16.1568 21.9547L16.5618 22.8691ZM22.216 22.6501L21.8742 23.5899L21.8796 23.5918L22.216 22.6501ZM24.4458 23.9641L23.811 24.7368L23.8281 24.7508L23.8458 24.7641L24.4458 23.9641ZM24.6847 24.2229L23.8164 24.719L23.8601 24.7955L23.9165 24.8631L24.6847 24.2229ZM24.8041 24.4817L23.8142 24.6231L23.8269 24.7124L23.8555 24.798L24.8041 24.4817ZM24.5652 25.4175L25.2435 26.1523L25.2457 26.1502L24.5652 25.4175ZM23.9281 25.6962L23.9807 26.6948L24.0068 26.6934L24.0328 26.6907L23.9281 25.6962ZM23.1915 25.4374L22.5373 26.1937L22.557 26.2107L22.5776 26.2267L23.1915 25.4374ZM21.6585 24.4618L21.2589 25.3786L21.2674 25.3822L21.6585 24.4618ZM15.5464 25.9152L14.8222 25.2255L14.8136 25.2347L15.5464 25.9152ZM14.332 27.8663L15.2604 28.2377L15.2627 28.2319L14.332 27.8663ZM14.332 32.6046L13.4012 32.9703L13.4035 32.976L14.332 32.6046ZM15.5464 34.5358L14.8136 35.2163L14.8223 35.2255L15.5464 34.5358ZM17.378 35.8498L16.959 36.7578L16.9662 36.7611L16.9735 36.7644L17.378 35.8498ZM21.4992 35.9693L21.8527 36.9048L21.8636 36.9005L21.4992 35.9693ZM23.2512 34.9937L22.6657 34.183L22.6574 34.1892L23.2512 34.9937ZM23.948 34.7747L23.8312 35.7679L23.8618 35.7715L23.8926 35.7732L23.948 34.7747ZM24.5453 35.0535L23.8105 35.7317L23.8241 35.7464L23.8382 35.7606L24.5453 35.0535ZM24.7046 36.1285L25.6184 36.5347L25.6261 36.5174L25.6331 36.4999L24.7046 36.1285ZM24.4657 36.467L25.0886 37.2493L25.1328 37.2141L25.1728 37.1741L24.4657 36.467ZM22.1562 37.7611L21.8218 36.8187L21.817 36.8204L22.1562 37.7611ZM19.588 37.1991C18.6396 37.1991 17.764 37.0242 16.951 36.6807L16.1726 38.523C17.2443 38.9758 18.3861 39.1991 19.588 39.1991V37.1991ZM16.9667 36.6875C16.1517 36.3265 15.4405 35.8346 14.8266 35.2091L13.3993 36.61C14.1923 37.418 15.1136 38.0542 16.1568 38.5162L16.9667 36.6875ZM14.8396 35.2225C14.2374 34.5856 13.7589 33.8413 13.4053 32.9811L11.5555 33.7413C11.9983 34.8189 12.6082 35.7735 13.3863 36.5966L14.8396 35.2225ZM13.4098 32.992C13.0752 32.1499 12.903 31.2278 12.903 30.2155H10.903C10.903 31.4597 11.1158 32.6346 11.5511 33.7304L13.4098 32.992ZM12.903 30.2155C12.903 29.2181 13.0747 28.3108 13.408 27.4833L11.5528 26.7361C11.1163 27.82 10.903 28.9832 10.903 30.2155H12.903ZM13.4053 27.4898C13.7582 26.6312 14.235 25.8962 14.8333 25.2749L13.3926 23.8876C12.6106 24.6998 11.9989 25.6505 11.5555 26.7296L13.4053 27.4898ZM14.833 25.2752C15.4465 24.6386 16.1557 24.1426 16.9667 23.7834L16.1568 21.9547C15.1097 22.4185 14.1863 23.064 13.3929 23.8874L14.833 25.2752ZM16.9667 23.7834C17.7594 23.4324 18.629 23.2519 19.588 23.2519V21.2519C18.3702 21.2519 17.2224 21.4829 16.1568 21.9547L16.9667 23.7834ZM19.588 23.2519C20.5281 23.2519 21.2822 23.3746 21.8742 23.5899L22.5577 21.7103C21.6897 21.3947 20.6918 21.2519 19.588 21.2519V23.2519ZM21.8796 23.5918C22.4936 23.8111 23.1379 24.1839 23.811 24.7368L25.0805 23.1914C24.2671 22.5232 23.4248 22.02 22.5523 21.7083L21.8796 23.5918ZM23.8458 24.7641C23.8682 24.7809 23.8453 24.7695 23.8164 24.719L25.5529 23.7268C25.4179 23.4905 25.2357 23.3065 25.0458 23.1641L23.8458 24.7641ZM23.9165 24.8631C23.8769 24.8156 23.8298 24.7327 23.8142 24.6231L25.7941 24.3403C25.7519 24.0449 25.6252 23.7895 25.4529 23.5827L23.9165 24.8631ZM23.8555 24.798C23.8503 24.7824 23.8472 24.7702 23.8454 24.7621C23.8436 24.754 23.8429 24.7492 23.8428 24.7483C23.8426 24.7473 23.843 24.7494 23.8433 24.755C23.8436 24.7606 23.844 24.7689 23.844 24.7804H25.844C25.844 24.595 25.8244 24.3802 25.7528 24.1655L23.8555 24.798ZM23.844 24.7804C23.844 24.7807 23.8446 24.7589 23.8581 24.728C23.8716 24.6971 23.8867 24.6829 23.8848 24.6847L25.2457 26.1502C25.634 25.7897 25.844 25.3124 25.844 24.7804H23.844ZM23.8869 24.6827C23.8813 24.6878 23.8786 24.6892 23.8757 24.6904C23.872 24.692 23.8569 24.6982 23.8235 24.7017L24.0328 26.6907C24.481 26.6435 24.8998 26.4695 25.2435 26.1523L23.8869 24.6827ZM23.8756 24.6976C23.8783 24.6974 23.8819 24.6975 23.8854 24.6981C23.8888 24.6986 23.8893 24.699 23.8863 24.698C23.8805 24.6959 23.8533 24.6852 23.8054 24.648L22.5776 26.2267C22.9668 26.5294 23.4428 26.7231 23.9807 26.6948L23.8756 24.6976ZM23.8457 24.681C23.2857 24.1967 22.6874 23.8125 22.0496 23.5415L21.2674 25.3822C21.6914 25.5624 22.1151 25.8286 22.5373 26.1937L23.8457 24.681ZM22.0581 23.5451C21.3658 23.2433 20.5228 23.1234 19.588 23.1234V25.1234C20.3786 25.1234 20.916 25.229 21.2589 25.3785L22.0581 23.5451ZM19.588 23.1234C18.6647 23.1234 17.7846 23.3122 16.959 23.6932L17.7971 25.5091C18.3519 25.2531 18.9451 25.1234 19.588 25.1234V23.1234ZM16.959 23.6932C16.1528 24.0653 15.4391 24.5779 14.8223 25.2255L16.2705 26.6048C16.7156 26.1376 17.223 25.7741 17.7971 25.5091L16.959 23.6932ZM14.8136 25.2347C14.2067 25.8883 13.7366 26.6468 13.4012 27.5006L15.2627 28.2319C15.5113 27.5992 15.8508 27.0569 16.2792 26.5956L14.8136 25.2347ZM13.4035 27.4949C13.0613 28.3504 12.894 29.2603 12.894 30.2155H14.894C14.894 29.4984 15.0186 28.8422 15.2604 28.2377L13.4035 27.4949ZM12.894 30.2155C12.894 31.1821 13.0606 32.1033 13.4012 32.9703L15.2627 32.239C15.0193 31.6195 14.894 30.9479 14.894 30.2155H12.894ZM13.4035 32.976C13.7396 33.8163 14.2095 34.5657 14.8136 35.2163L16.2792 33.8554C15.848 33.391 15.5083 32.853 15.2604 32.2332L13.4035 32.976ZM14.8223 35.2255C15.4391 35.8731 16.1528 36.3857 16.959 36.7578L17.7971 34.9419C17.223 34.6769 16.7156 34.3134 16.2705 33.8462L14.8223 35.2255ZM16.9735 36.7644C17.7959 37.1281 18.6709 37.3077 19.588 37.3077V35.3077C18.9388 35.3077 18.3405 35.1821 17.7826 34.9353L16.9735 36.7644ZM19.588 37.3077C20.3783 37.3077 21.1357 37.1756 21.8526 36.9047L21.1458 35.0338C20.6682 35.2143 20.1515 35.3077 19.588 35.3077V37.3077ZM21.8636 36.9005C22.5604 36.6279 23.221 36.2589 23.8451 35.7983L22.6574 34.1892C22.1665 34.5515 21.6592 34.8329 21.1348 35.038L21.8636 36.9005ZM23.8367 35.8044C23.8869 35.7681 23.9095 35.762 23.9044 35.7636C23.9015 35.7645 23.8926 35.767 23.8785 35.7684C23.8642 35.7698 23.848 35.7699 23.8312 35.7679L24.0649 33.7816C23.5237 33.7179 23.0455 33.9088 22.6657 34.183L23.8367 35.8044ZM23.8926 35.7732C23.8962 35.7734 23.8795 35.7726 23.8537 35.7605C23.8275 35.7483 23.8129 35.7343 23.8105 35.7317L25.2801 34.3752C24.9409 34.0077 24.4964 33.8036 24.0035 33.7763L23.8926 35.7732ZM23.8382 35.7606C23.8235 35.7458 23.8106 35.7294 23.8002 35.7127C23.7899 35.6962 23.7843 35.6828 23.7815 35.675C23.7763 35.6603 23.7842 35.6736 23.7842 35.7304H25.7842C25.7842 35.2552 25.6502 34.7441 25.2524 34.3463L23.8382 35.7606ZM23.7842 35.7304C23.7842 35.7296 23.7844 35.7303 23.7837 35.7333C23.7831 35.7366 23.7812 35.7443 23.7761 35.7572L25.6331 36.4999C25.7297 36.2583 25.7842 35.9998 25.7842 35.7304H23.7842ZM23.7908 35.7224C23.7944 35.7143 23.7907 35.7278 23.7586 35.7599L25.1728 37.1741C25.353 36.9939 25.5086 36.7817 25.6184 36.5347L23.7908 35.7224ZM23.8428 35.6847C23.2084 36.1899 22.5353 36.5655 21.8218 36.8187L22.4906 38.7035C23.423 38.3727 24.2895 37.8856 25.0886 37.2493L23.8428 35.6847ZM21.817 36.8204C21.1214 37.0713 20.3805 37.1991 19.588 37.1991V39.1991C20.6005 39.1991 21.5718 39.0349 22.4955 38.7018L21.817 36.8204ZM28.3946 37.7014L27.6875 38.4085L28.3946 37.7014ZM28.3946 22.7496L29.0769 23.4807L29.0895 23.4689L29.1017 23.4567L28.3946 22.7496ZM30.0471 23.0085L30.9418 22.5618L30.9292 22.5367L30.9153 22.5123L30.0471 23.0085ZM36.2786 35.4915V36.4915H37.8955L37.1733 35.0448L36.2786 35.4915ZM35.6415 35.4915L34.7423 35.054L34.043 36.4915H35.6415V35.4915ZM41.7138 23.0085L40.8456 22.5123L40.8291 22.5412L40.8145 22.571L41.7138 23.0085ZM43.3663 22.7496L42.6591 23.4567L42.6713 23.4689L42.6839 23.4807L43.3663 22.7496ZM43.3463 37.7014L42.6624 36.9718L42.6506 36.9829L42.6392 36.9943L43.3463 37.7014ZM41.5943 26.3532L41.3518 25.383L40.5943 25.5724V26.3532H41.5943ZM41.9925 26.2536L42.8903 26.6941L43.8386 24.7613L41.75 25.2835L41.9925 26.2536ZM36.7763 36.8851L37.6133 37.4323L37.647 37.3808L37.6741 37.3256L36.7763 36.8851ZM34.9248 36.7855L35.825 36.35L35.8196 36.339L34.9248 36.7855ZM29.7683 26.4527L29.5258 25.4826L28.3174 25.7847L28.8736 26.8993L29.7683 26.4527ZM30.1665 26.3532H31.1665V25.0724L29.924 25.383L30.1665 26.3532ZM29.1313 37C29.1152 37 29.1063 36.9986 29.1031 36.9981C29.1 36.9975 29.1008 36.9974 29.1038 36.9986C29.1069 36.9999 29.1093 37.0013 29.1102 37.0019C29.111 37.0024 29.1081 37.0006 29.1017 36.9943L27.6875 38.4085C28.0818 38.8027 28.585 39 29.1313 39V37ZM29.1017 36.9943C29.0954 36.9879 29.0936 36.985 29.0941 36.9858C29.0947 36.9867 29.0961 36.9891 29.0974 36.9922C29.0986 36.9952 29.0985 36.9959 29.0979 36.9929C29.0973 36.9897 29.096 36.9808 29.096 36.9647H27.096C27.096 37.511 27.2933 38.0142 27.6875 38.4085L29.1017 36.9943ZM29.096 36.9647V23.4863H27.096V36.9647H29.096ZM29.096 23.4863C29.096 23.4643 29.0978 23.4515 29.0987 23.4464C29.0996 23.4415 29.0998 23.443 29.0974 23.4489C29.0949 23.4549 29.0911 23.4623 29.0862 23.4694C29.0813 23.4765 29.0774 23.4802 29.0769 23.4807L27.7123 22.0186C27.285 22.4174 27.096 22.9409 27.096 23.4863H29.096ZM29.1017 23.4567C29.1081 23.4504 29.111 23.4486 29.1102 23.4491C29.1093 23.4497 29.1069 23.4512 29.1038 23.4524C29.1008 23.4536 29.1 23.4535 29.1031 23.4529C29.1063 23.4524 29.1152 23.451 29.1313 23.451V21.451C28.585 21.451 28.0818 21.6483 27.6875 22.0425L29.1017 23.4567ZM29.1313 23.451C29.1527 23.451 29.1599 23.4534 29.1571 23.4527C29.1535 23.4517 29.1464 23.4491 29.1389 23.4446C29.1317 23.4402 29.1315 23.4384 29.1376 23.445C29.1442 23.4522 29.159 23.47 29.1788 23.5046L30.9153 22.5123C30.5412 21.8577 29.92 21.451 29.1313 21.451V23.451ZM29.1524 23.4551L35.3839 35.9381L37.1733 35.0448L30.9418 22.5618L29.1524 23.4551ZM36.2786 34.4915H35.6415V36.4915H36.2786V34.4915ZM36.5408 35.9289L42.613 23.4459L40.8145 22.571L34.7423 35.054L36.5408 35.9289ZM42.582 23.5046C42.6018 23.47 42.6166 23.4522 42.6233 23.445C42.6294 23.4384 42.6291 23.4402 42.622 23.4446C42.6145 23.4491 42.6073 23.4517 42.6038 23.4527C42.6009 23.4534 42.6082 23.451 42.6296 23.451V21.451C41.8408 21.451 41.2196 21.8577 40.8456 22.5123L42.582 23.5046ZM42.6296 23.451C42.6457 23.451 42.6546 23.4524 42.6578 23.4529C42.6608 23.4535 42.6601 23.4536 42.6571 23.4524C42.654 23.4512 42.6516 23.4497 42.6507 23.4491C42.6499 23.4486 42.6528 23.4504 42.6591 23.4567L44.0734 22.0425C43.6791 21.6483 43.1758 21.451 42.6296 21.451V23.451ZM42.6839 23.4807C42.6834 23.4802 42.6796 23.4765 42.6747 23.4694C42.6698 23.4623 42.666 23.4549 42.6635 23.4489C42.6611 23.443 42.6613 23.4415 42.6622 23.4464C42.6631 23.4515 42.6649 23.4643 42.6649 23.4863H44.6649C44.6649 22.9409 44.4759 22.4174 44.0486 22.0186L42.6839 23.4807ZM42.6649 23.4863V36.9647H44.6649V23.4863H42.6649ZM42.6649 36.9647C42.6649 36.9769 42.6638 36.9819 42.6639 36.9812C42.6641 36.9803 42.665 36.9764 42.6674 36.971C42.6698 36.9655 42.6721 36.962 42.6728 36.961C42.6734 36.9601 42.6708 36.9639 42.6624 36.9718L44.0303 38.4309C44.445 38.0421 44.6649 37.5322 44.6649 36.9647H42.6649ZM42.6392 36.9943C42.6308 37.0026 42.6264 37.0057 42.6262 37.0058C42.6261 37.0059 42.6267 37.0055 42.6281 37.0047C42.6294 37.004 42.6312 37.0031 42.6332 37.0023C42.6377 37.0004 42.6412 36.9996 42.6423 36.9993C42.6433 36.9991 42.6395 37 42.6296 37V39C43.1766 39 43.669 38.793 44.0534 38.4085L42.6392 36.9943ZM42.6296 37C42.6136 37 42.6046 36.9986 42.6014 36.9981C42.5984 36.9975 42.5991 36.9974 42.6022 36.9986C42.6052 36.9999 42.6076 37.0013 42.6086 37.0019C42.6094 37.0024 42.6064 37.0006 42.6001 36.9943L41.1859 38.4085C41.5801 38.8027 42.0834 39 42.6296 39V37ZM42.6001 36.9943C42.5937 36.9879 42.5919 36.985 42.5925 36.9858C42.5931 36.9867 42.5945 36.9891 42.5957 36.9922C42.597 36.9952 42.5968 36.9959 42.5963 36.9929C42.5957 36.9897 42.5943 36.9808 42.5943 36.9647H40.5943C40.5943 37.511 40.7916 38.0142 41.1859 38.4085L42.6001 36.9943ZM42.5943 36.9647V26.3532H40.5943V36.9647H42.5943ZM41.8369 27.3233L42.2351 27.2238L41.75 25.2835L41.3518 25.383L41.8369 27.3233ZM41.0948 25.8132L35.8786 36.4446L37.6741 37.3256L42.8903 26.6941L41.0948 25.8132ZM35.9394 36.3378C35.8957 36.4047 35.8725 36.4134 35.8829 36.4075C35.8871 36.405 35.8923 36.4029 35.8962 36.4019C35.8996 36.4011 35.8954 36.4027 35.8804 36.4027V38.4027C36.631 38.4027 37.2268 38.0234 37.6133 37.4323L35.9394 36.3378ZM35.8804 36.4027C35.8648 36.4027 35.8538 36.4018 35.8468 36.4009C35.8399 36.4001 35.8368 36.3992 35.8367 36.3992C35.8367 36.3992 35.8373 36.3993 35.8384 36.3997C35.8396 36.4001 35.8411 36.4007 35.843 36.4016C35.847 36.4033 35.8513 36.4056 35.8555 36.4084C35.865 36.4145 35.8671 36.4182 35.8627 36.413C35.8576 36.4069 35.8435 36.3884 35.825 36.35L34.0246 37.2211C34.1876 37.5578 34.4282 37.8674 34.7705 38.0885C35.1153 38.3112 35.4995 38.4027 35.8804 38.4027V36.4027ZM35.8196 36.339L30.6631 26.0062L28.8736 26.8993L34.03 37.2321L35.8196 36.339ZM30.0109 27.4229L30.4091 27.3233L29.924 25.383L29.5258 25.4826L30.0109 27.4229ZM29.1665 26.3532V36.9647H31.1665V26.3532H29.1665ZM29.1665 36.9647C29.1665 36.9808 29.1652 36.9897 29.1646 36.9929C29.164 36.9959 29.1639 36.9952 29.1651 36.9922C29.1664 36.9891 29.1678 36.9867 29.1684 36.9858C29.1689 36.985 29.1671 36.9879 29.1608 36.9943L30.575 38.4085C30.9692 38.0142 31.1665 37.511 31.1665 36.9647H29.1665ZM29.1608 36.9943C29.1544 37.0006 29.1515 37.0024 29.1523 37.0019C29.1532 37.0013 29.1556 36.9999 29.1587 36.9986C29.1617 36.9974 29.1625 36.9975 29.1595 36.9981C29.1562 36.9986 29.1473 37 29.1313 37V39C29.6775 39 30.1807 38.8027 30.575 38.4085L29.1608 36.9943ZM50.1636 37.8009L50.4896 36.8555L50.1636 37.8009ZM48.1528 36.686L47.5109 37.4528V37.4528L48.1528 36.686ZM46.8986 35.0335L47.8187 34.642L47.8105 34.6226L47.8014 34.6036L46.8986 35.0335ZM46.8986 34.2571L46.0453 33.7356L46.0345 33.7533L46.0244 33.7714L46.8986 34.2571ZM47.6153 33.7992L47.8114 34.7798L47.8218 34.7777L47.8322 34.7754L47.6153 33.7992ZM48.3121 33.9186L47.8051 34.7806L47.8344 34.7978L47.8649 34.8131L48.3121 33.9186ZM48.8496 34.4761L47.9459 34.9042L47.9481 34.9088L48.8496 34.4761ZM49.6261 35.3919L49.0122 36.1813L49.0191 36.1866L49.0261 36.1919L49.6261 35.3919ZM50.96 36.0688L50.6438 37.0175L50.96 36.0688ZM54.3446 36.029L54.001 35.0898L53.9934 35.0927L54.3446 36.029ZM55.6586 35.1729L56.4045 35.8389L56.4103 35.8324L56.416 35.8258L55.6586 35.1729ZM55.3201 31.868L54.6045 32.5666L54.613 32.5751L55.3201 31.868ZM52.6125 30.8327L52.7172 29.8382L52.7088 29.8374L52.6125 30.8327ZM48.7302 29.3794L49.3819 28.6209L48.7302 29.3794ZM50.0442 22.7496L49.6931 21.8133L49.6882 21.8151L50.0442 22.7496ZM54.9816 22.6103L54.6282 23.5458L54.635 23.5483L54.9816 22.6103ZM56.5744 23.546L55.9128 24.2958L56.5744 23.546ZM57.749 24.9595L56.8952 25.4802L56.9002 25.4883L56.9053 25.4964L57.749 24.9595ZM57.968 25.7957L56.9791 25.6474L56.9758 25.6692L56.9735 25.691L57.968 25.7957ZM57.5897 26.393L58.1238 27.2385L58.133 27.2326L57.5897 26.393ZM56.7735 26.4925L56.4703 27.4455L56.4703 27.4455L56.7735 26.4925ZM56.1165 25.9749L55.2409 26.458L55.2459 26.467L55.251 26.4759L56.1165 25.9749ZM55.34 24.9994L55.9962 24.2448V24.2448L55.34 24.9994ZM54.2649 24.3822L53.9039 25.3147L53.9171 25.3199L53.9305 25.3246L54.2649 24.3822ZM52.8116 24.1433L52.798 25.1433H52.8116V24.1433ZM50.3428 24.7007L50.8314 25.5732L50.838 25.5695L50.8445 25.5658L50.3428 24.7007ZM49.646 27.5875L48.7645 28.0598L48.7747 28.0788L48.7857 28.0973L49.646 27.5875ZM50.7808 28.5233L50.3424 29.4221L50.3509 29.4261L50.7808 28.5233ZM53.1699 29.0807L53.0679 30.0755L53.0696 30.0757L53.1699 29.0807ZM56.8531 30.5341L56.1744 31.2685L56.1801 31.2738L56.186 31.279L56.8531 30.5341ZM57.7092 35.6706L56.841 35.1745L56.8364 35.1824L56.8321 35.1903L57.7092 35.6706ZM56.4549 37.0842L57.0381 37.8965L57.0419 37.8938L56.4549 37.0842ZM54.6631 37.9204L54.3984 36.956L54.3935 36.9574L54.6631 37.9204ZM52.5926 37.1991C51.8492 37.1991 51.1501 37.0833 50.4896 36.8555L49.8377 38.7463C50.7168 39.0494 51.637 39.1991 52.5926 39.1991V37.1991ZM50.4896 36.8555C49.8243 36.6261 49.2635 36.3117 48.7948 35.9192L47.5109 37.4528C48.1836 38.0159 48.9634 38.4448 49.8377 38.7463L50.4896 36.8555ZM48.7948 35.9192C48.333 35.5327 48.0165 35.1067 47.8187 34.642L45.9784 35.4251C46.3116 36.208 46.8312 36.8837 47.5109 37.4528L48.7948 35.9192ZM47.8014 34.6036C47.7868 34.573 47.799 34.5851 47.799 34.6304C47.799 34.6522 47.7961 34.6754 47.7901 34.6977C47.7843 34.7196 47.7771 34.7349 47.7727 34.7427L46.0244 33.7714C45.7125 34.3328 45.7448 34.9366 45.9957 35.4635L47.8014 34.6036ZM47.7518 34.7785C47.7494 34.7825 47.745 34.7887 47.7386 34.7951C47.7323 34.8015 47.7272 34.8051 47.7256 34.8061C47.7224 34.8082 47.7441 34.7932 47.8114 34.7798L47.4192 32.8186C46.8755 32.9273 46.3666 33.2099 46.0453 33.7356L47.7518 34.7785ZM47.8322 34.7754C47.8323 34.7754 47.8284 34.7762 47.8214 34.7764C47.8143 34.7766 47.8067 34.7761 47.7997 34.7748C47.7928 34.7737 47.789 34.7723 47.789 34.7723C47.7892 34.7724 47.7945 34.7744 47.8051 34.7806L48.8191 33.0567C48.392 32.8054 47.9026 32.7109 47.3984 32.823L47.8322 34.7754ZM47.8649 34.8131C47.8943 34.8278 47.9176 34.8444 47.9459 34.9042L49.7534 34.048C49.5428 33.6034 49.2077 33.2484 48.7593 33.0242L47.8649 34.8131ZM47.9481 34.9088C48.1882 35.4089 48.5596 35.8293 49.0122 36.1813L50.24 34.6026C49.9759 34.3971 49.8297 34.2069 49.7512 34.0434L47.9481 34.9088ZM49.0261 36.1919C49.4972 36.5453 50.0415 36.8168 50.6438 37.0175L51.2762 35.1201C50.8432 34.9758 50.4982 34.796 50.2261 34.5919L49.0261 36.1919ZM50.6438 37.0175C51.268 37.2256 51.9193 37.3276 52.5926 37.3276V35.3276C52.1243 35.3276 51.6873 35.2572 51.2762 35.1201L50.6438 37.0175ZM52.5926 37.3276C53.3348 37.3276 54.0395 37.2114 54.6957 36.9653L53.9934 35.0927C53.5878 35.2448 53.1245 35.3276 52.5926 35.3276V37.3276ZM54.6881 36.9681C55.3616 36.7217 55.9464 36.352 56.4045 35.8389L54.9126 34.5069C54.7071 34.7371 54.4159 34.9381 54.001 35.0899L54.6881 36.9681ZM56.416 35.8258C56.9199 35.2413 57.1563 34.5315 57.1563 33.7594H55.1563C55.1563 34.1021 55.0609 34.3347 54.9011 34.52L56.416 35.8258ZM57.1563 33.7594C57.1563 32.7576 56.7475 31.8811 56.0272 31.1609L54.613 32.5751C55.0076 32.9698 55.1563 33.3542 55.1563 33.7594H57.1563ZM56.0357 31.1695C55.2537 30.3684 54.0745 29.9811 52.7171 29.8382L52.5078 31.8272C53.6722 31.9498 54.2981 32.2527 54.6045 32.5665L56.0357 31.1695ZM52.7088 29.8374C51.2011 29.6915 50.1237 29.2582 49.3819 28.6209L48.0785 30.1379C49.2214 31.1198 50.7322 31.6554 52.5161 31.8281L52.7088 29.8374ZM49.3819 28.6209C48.6505 27.9925 48.3166 27.263 48.3166 26.3731H46.3166C46.3166 27.8723 46.9252 29.147 48.0785 30.1379L49.3819 28.6209ZM48.3166 26.3731C48.3166 25.6966 48.5012 25.1819 48.8325 24.77L47.2741 23.5165C46.6232 24.3257 46.3166 25.2976 46.3166 26.3731H48.3166ZM48.8325 24.77C49.1973 24.3165 49.7059 23.9486 50.4002 23.6841L49.6882 21.8151C48.7101 22.1878 47.8915 22.7489 47.2741 23.5165L48.8325 24.77ZM50.3953 23.686C51.1178 23.415 51.9392 23.2718 52.8713 23.2718V21.2718C51.7328 21.2718 50.6695 21.4472 49.6931 21.8133L50.3953 23.686ZM52.8713 23.2718C53.5912 23.2718 54.1697 23.3725 54.6282 23.5457L55.335 21.6748C54.5991 21.3968 53.7707 21.2718 52.8713 21.2718V23.2718ZM54.635 23.5483C55.1393 23.7347 55.5613 23.9857 55.9128 24.2958L57.236 22.7962C56.6849 22.3099 56.0451 21.9372 55.3283 21.6723L54.635 23.5483ZM55.9128 24.2958C56.2845 24.6239 56.6125 25.0165 56.8952 25.4802L58.6028 24.4389C58.2219 23.8142 57.7668 23.2645 57.236 22.7962L55.9128 24.2958ZM56.9053 25.4964C56.9534 25.5719 56.9702 25.6198 56.9758 25.6409C56.9805 25.659 56.9774 25.6582 56.9791 25.6474L58.9569 25.9441C59.0419 25.3779 58.8696 24.8578 58.5927 24.4227L56.9053 25.4964ZM56.9735 25.691C56.9751 25.676 56.9832 25.6393 57.0087 25.5991C57.0332 25.5605 57.055 25.5479 57.0465 25.5534L58.133 27.2326C58.5949 26.9337 58.9022 26.4733 58.9625 25.9004L56.9735 25.691ZM57.0557 25.5475C57.0483 25.5522 57.0472 25.5519 57.0523 25.5501C57.0576 25.5481 57.0657 25.5459 57.0755 25.5447C57.0852 25.5435 57.0919 25.5439 57.094 25.5441C57.0959 25.5443 57.0904 25.544 57.0767 25.5396L56.4703 27.4455C57.0346 27.625 57.6143 27.5603 58.1237 27.2385L57.0557 25.5475ZM57.0767 25.5396C57.0084 25.5179 56.9964 25.4989 56.9819 25.4739L55.251 26.4759C55.5286 26.9553 55.9546 27.2814 56.4703 27.4455L57.0767 25.5396ZM56.992 25.4918C56.7279 25.0132 56.3973 24.5936 55.9962 24.2448L54.6838 25.754C54.8932 25.9361 55.0803 26.1668 55.2409 26.458L56.992 25.4918ZM55.9962 24.2448C55.5891 23.8908 55.1194 23.6243 54.5993 23.4398L53.9305 25.3246C54.2333 25.4321 54.4804 25.577 54.6838 25.754L55.9962 24.2448ZM54.6259 23.4496C54.0734 23.2357 53.4613 23.1433 52.8116 23.1433V25.1433C53.2767 25.1433 53.6335 25.2101 53.9039 25.3147L54.6259 23.4496ZM52.8251 23.1434C51.7119 23.1283 50.6993 23.338 49.8411 23.8357L50.8445 25.5658C51.3137 25.2937 51.9468 25.1317 52.798 25.1432L52.8251 23.1434ZM49.8542 23.8282C49.3876 24.0895 48.9974 24.4476 48.7292 24.9142C48.4619 25.3793 48.3474 25.8974 48.3474 26.4328H50.3474C50.3474 26.1852 50.3987 26.0231 50.4633 25.9108C50.5269 25.8 50.6344 25.6836 50.8314 25.5732L49.8542 23.8282ZM48.3474 26.4328C48.3474 27.0055 48.4924 27.5517 48.7645 28.0598L50.5275 27.1153C50.4015 26.8801 50.3474 26.6565 50.3474 26.4328H48.3474ZM48.7857 28.0973C49.1333 28.6839 49.6982 29.1078 50.3424 29.422L51.2193 27.6245C50.7751 27.4079 50.5835 27.2079 50.5063 27.0777L48.7857 28.0973ZM50.3509 29.4261C51.0586 29.7631 51.9857 29.9645 53.0679 30.0755L53.2719 28.0859C52.2835 27.9846 51.618 27.8143 51.2108 27.6204L50.3509 29.4261ZM53.0696 30.0757C54.5041 30.2203 55.5033 30.6482 56.1744 31.2685L57.5318 29.7997C56.4509 28.8007 54.9946 28.2597 53.2703 28.0858L53.0696 30.0757ZM56.186 31.279C56.8407 31.8653 57.187 32.6379 57.187 33.6996H59.187C59.187 32.1333 58.6441 30.7956 57.5202 29.7891L56.186 31.279ZM57.187 33.6996C57.187 34.3134 57.0589 34.7931 56.841 35.1745L58.5774 36.1668C58.9966 35.4333 59.187 34.599 59.187 33.6996H57.187ZM56.8321 35.1903C56.6002 35.6137 56.2829 35.9737 55.868 36.2746L57.0419 37.8938C57.6888 37.4248 58.2076 36.8425 58.5863 36.151L56.8321 35.1903ZM55.8717 36.2719C55.4597 36.5677 54.9725 36.7984 54.3984 36.956L54.9278 38.8847C55.7075 38.6707 56.4149 38.344 57.0381 37.8965L55.8717 36.2719ZM54.3935 36.9574C53.8211 37.1177 53.2218 37.1991 52.5926 37.1991V39.1991C53.3968 39.1991 54.1779 39.0947 54.9327 38.8833L54.3935 36.9574Z" fill="url(#paint1_linear_298_2754)"/>
</g>
</g>
<defs>
<filter id="filter0_d_298_2754" x="0" y="0" width="70" height="70" filterUnits="userSpaceOnUse" color-interpolation-filters="sRGB">
<feFlood flood-opacity="0" result="BackgroundImageFix"/>
<feColorMatrix in="SourceAlpha" type="matrix" values="0 0 0 0 0 0 0 0 0 0 0 0 0 0 0 0 0 0 127 0" result="hardAlpha"/>
<feOffset dy="3"/>
<feGaussianBlur stdDeviation="2.5"/>
<feComposite in2="hardAlpha" operator="out"/>
<feColorMatrix type="matrix" values="0 0 0 0 0 0 0 0 0 0 0 0 0 0 0 0 0 0 0.25 0"/>
<feBlend mode="normal" in2="BackgroundImageFix" result="effect1_dropShadow_298_2754"/>
<feBlend mode="normal" in="SourceGraphic" in2="effect1_dropShadow_298_2754" result="shape"/>
</filter>
<filter id="filter1_ddii_298_2754" x="11.2785" y="22.1264" width="47.0517" height="16.6565" filterUnits="userSpaceOnUse" color-interpolation-filters="sRGB">
<feFlood flood-opacity="0" result="BackgroundImageFix"/>
<feColorMatrix in="SourceAlpha" type="matrix" values="0 0 0 0 0 0 0 0 0 0 0 0 0 0 0 0 0 0 127 0" result="hardAlpha"/>
<feOffset dx="-0.0889238" dy="0.0889238"/>
<feGaussianBlur stdDeviation="0.107252"/>
<feComposite in2="hardAlpha" operator="out"/>
<feColorMatrix type="matrix" values="0 0 0 0 0.756863 0 0 0 0 0.341176 0 0 0 0 0.0156863 0 0 0 1 0"/>
<feBlend mode="normal" in2="BackgroundImageFix" result="effect1_dropShadow_298_2754"/>
<feColorMatrix in="SourceAlpha" type="matrix" values="0 0 0 0 0 0 0 0 0 0 0 0 0 0 0 0 0 0 127 0" result="hardAlpha"/>
<feOffset dx="-0.312252" dy="0.271523"/>
<feGaussianBlur stdDeviation="0.156126"/>
<feComposite in2="hardAlpha" operator="out"/>
<feColorMatrix type="matrix" values="0 0 0 0 0 0 0 0 0 0 0 0 0 0 0 0 0 0 0.25 0"/>
<feBlend mode="normal" in2="effect1_dropShadow_298_2754" result="effect2_dropShadow_298_2754"/>
<feBlend mode="normal" in="SourceGraphic" in2="effect2_dropShadow_298_2754" result="shape"/>
<feColorMatrix in="SourceAlpha" type="matrix" values="0 0 0 0 0 0 0 0 0 0 0 0 0 0 0 0 0 0 127 0" result="hardAlpha"/>
<feOffset dx="0.143228" dy="0.271523"/>
<feGaussianBlur stdDeviation="0.107252"/>
<feComposite in2="hardAlpha" operator="arithmetic" k2="-1" k3="1"/>
<feColorMatrix type="matrix" values="0 0 0 0 0 0 0 0 0 0 0 0 0 0 0 0 0 0 0.08 0"/>
<feBlend mode="normal" in2="shape" result="effect3_innerShadow_298_2754"/>
<feColorMatrix in="SourceAlpha" type="matrix" values="0 0 0 0 0 0 0 0 0 0 0 0 0 0 0 0 0 0 127 0" result="hardAlpha"/>
<feOffset dx="-0.0312252"/>
<feComposite in2="hardAlpha" operator="arithmetic" k2="-1" k3="1"/>
<feColorMatrix type="matrix" values="0 0 0 0 1 0 0 0 0 1 0 0 0 0 1 0 0 0 1 0"/>
<feBlend mode="normal" in2="effect3_innerShadow_298_2754" result="effect4_innerShadow_298_2754"/>
</filter>
<linearGradient id="paint0_linear_298_2754" x1="19.0105" y1="36" x2="54.1735" y2="36.2587" gradientUnits="userSpaceOnUse">
<stop stop-color="#FF9C01"/>
<stop offset="1" stop-color="#FCB038"/>
</linearGradient>
<linearGradient id="paint1_linear_298_2754" x1="19.0105" y1="36" x2="54.1735" y2="36.2587" gradientUnits="userSpaceOnUse">
<stop stop-color="#FF9C01"/>
<stop offset="1" stop-color="#FCB038"/>
</linearGradient>
</defs>
</svg>
