<svg width="58" height="56" viewBox="0 0 58 56" fill="none" xmlns="http://www.w3.org/2000/svg">
<g filter="url(#filter0_ddii_397_2583)">
<rect x="10" y="5" width="46" height="46" rx="10" fill="url(#paint0_linear_397_2583)"/>
</g>
<path fill-rule="evenodd" clip-rule="evenodd" d="M33.0003 18C31.8957 18 31.0003 18.8954 31.0003 20V25.9997H25C23.8954 25.9997 23 26.8951 23 27.9997C23 29.1043 23.8954 29.9997 25 29.9997H31.0003V36C31.0003 37.1046 31.8957 38 33.0003 38C34.1049 38 35.0003 37.1046 35.0003 36V29.9997H41C42.1046 29.9997 43 29.1043 43 27.9997C43 26.8951 42.1046 25.9997 41 25.9997H35.0003V20C35.0003 18.8954 34.1049 18 33.0003 18Z" fill="white"/>
<defs>
<filter id="filter0_ddii_397_2583" x="0.796025" y="0.398013" width="57.3132" height="55.204" filterUnits="userSpaceOnUse" color-interpolation-filters="sRGB">
<feFlood flood-opacity="0" result="BackgroundImageFix"/>
<feColorMatrix in="SourceAlpha" type="matrix" values="0 0 0 0 0 0 0 0 0 0 0 0 0 0 0 0 0 0 127 0" result="hardAlpha"/>
<feOffset dx="-1.31155" dy="1.31155"/>
<feGaussianBlur stdDeviation="1.58193"/>
<feComposite in2="hardAlpha" operator="out"/>
<feColorMatrix type="matrix" values="0 0 0 0 0.756863 0 0 0 0 0.341176 0 0 0 0 0.0156863 0 0 0 1 0"/>
<feBlend mode="normal" in2="BackgroundImageFix" result="effect1_dropShadow_397_2583"/>
<feColorMatrix in="SourceAlpha" type="matrix" values="0 0 0 0 0 0 0 0 0 0 0 0 0 0 0 0 0 0 127 0" result="hardAlpha"/>
<feOffset dx="-4.60199"/>
<feGaussianBlur stdDeviation="2.30099"/>
<feComposite in2="hardAlpha" operator="out"/>
<feColorMatrix type="matrix" values="0 0 0 0 0 0 0 0 0 0 0 0 0 0 0 0 0 0 0.25 0"/>
<feBlend mode="normal" in2="effect1_dropShadow_397_2583" result="effect2_dropShadow_397_2583"/>
<feBlend mode="normal" in="SourceGraphic" in2="effect2_dropShadow_397_2583" result="shape"/>
<feColorMatrix in="SourceAlpha" type="matrix" values="0 0 0 0 0 0 0 0 0 0 0 0 0 0 0 0 0 0 127 0" result="hardAlpha"/>
<feOffset dx="2.10924"/>
<feGaussianBlur stdDeviation="1.58193"/>
<feComposite in2="hardAlpha" operator="arithmetic" k2="-1" k3="1"/>
<feColorMatrix type="matrix" values="0 0 0 0 0 0 0 0 0 0 0 0 0 0 0 0 0 0 0.08 0"/>
<feBlend mode="normal" in2="shape" result="effect3_innerShadow_397_2583"/>
<feColorMatrix in="SourceAlpha" type="matrix" values="0 0 0 0 0 0 0 0 0 0 0 0 0 0 0 0 0 0 127 0" result="hardAlpha"/>
<feOffset dx="-0.460199"/>
<feComposite in2="hardAlpha" operator="arithmetic" k2="-1" k3="1"/>
<feColorMatrix type="matrix" values="0 0 0 0 1 0 0 0 0 1 0 0 0 0 1 0 0 0 1 0"/>
<feBlend mode="normal" in2="effect3_innerShadow_397_2583" result="effect4_innerShadow_397_2583"/>
</filter>
<linearGradient id="paint0_linear_397_2583" x1="6.38765" y1="13.0149" x2="46.4071" y2="23.6594" gradientUnits="userSpaceOnUse">
<stop stop-color="#E48B00"/>
<stop offset="1" stop-color="#F4A502"/>
</linearGradient>
</defs>
</svg>
