<svg width="17" height="17" viewBox="0 0 17 17" fill="none" xmlns="http://www.w3.org/2000/svg">
<path fill-rule="evenodd" clip-rule="evenodd" d="M15.7788 0.640796C16.6844 1.51613 16.709 2.95987 15.8336 3.86548L11.4089 8.44325L15.8337 13.0211C16.709 13.9267 16.6845 15.3704 15.7788 16.2457C14.8732 17.1211 13.4295 17.0965 12.5542 16.1909L8.23718 11.7246L3.92028 16.1908C3.04495 17.0965 1.60121 17.121 0.695598 16.2457C-0.210009 15.3703 -0.23455 13.9266 0.640786 13.021L5.06548 8.44325L0.640812 3.86556C-0.234523 2.95995 -0.209983 1.51621 0.695625 0.640879C1.60123 -0.234456 3.04497 -0.209915 3.92031 0.695693L8.23718 5.16186L12.5541 0.69561C13.4295 -0.209998 14.8732 -0.234539 15.7788 0.640796Z" fill="url(#paint0_linear_456_2605)"/>
<defs>
<linearGradient id="paint0_linear_456_2605" x1="2.32915" y1="5.94156" x2="15.551" y2="6.83431" gradientUnits="userSpaceOnUse">
<stop stop-color="#E43700"/>
<stop offset="1" stop-color="#FF2E11"/>
</linearGradient>
</defs>
</svg>
