<svg width="136" height="115" viewBox="0 0 136 115" fill="none" xmlns="http://www.w3.org/2000/svg">
<rect width="136" height="115" rx="20" fill="#DDDDDD"/>
<path d="M99.1306 51.0631C99.1306 53.7634 101.32 55.9524 104.02 55.9524C109.42 55.9524 113.798 51.5744 113.798 46.1738V40.1979C113.798 34.7974 109.42 30.4193 104.02 30.4193C101.32 30.4193 99.1306 32.6083 99.1306 35.3086V51.0631Z" fill="#EB8F00"/>
<path d="M99.1306 80.5209C99.1306 83.2212 101.32 85.4102 104.02 85.4102C109.42 85.4102 113.798 81.0322 113.798 75.6316V69.6558C113.798 64.2552 109.42 59.8772 104.02 59.8772C101.32 59.8772 99.1306 62.0662 99.1306 64.7665V80.5209Z" fill="#EB8F00"/>
<path d="M36.8694 51.0631C36.8694 53.7634 34.6804 55.9524 31.9801 55.9524C26.5795 55.9524 22.2015 51.5744 22.2015 46.1738V40.1979C22.2015 34.7974 26.5795 30.4193 31.9801 30.4193C34.6804 30.4193 36.8694 32.6083 36.8694 35.3086V51.0631Z" fill="#EB8F00"/>
<path d="M36.8694 80.5209C36.8694 83.2212 34.6804 85.4102 31.9801 85.4102C26.5795 85.4102 22.2015 81.0322 22.2015 75.6316V69.6558C22.2015 64.2552 26.5795 59.8772 31.9801 59.8772C34.6804 59.8772 36.8694 62.0662 36.8694 64.7665V80.5209Z" fill="#EB8F00"/>
<rect x="40.5326" y="21" width="55.2009" height="73" rx="7.84946" fill="#FF9C01"/>
</svg>
