<svg width="94" height="66" viewBox="0 0 94 66" fill="none" xmlns="http://www.w3.org/2000/svg">
<rect x="20.1426" y="11" width="54.0669" height="55" rx="10" fill="#FF9C01"/>
<path d="M79 45.6438C79 48.3441 81.189 50.5331 83.8893 50.5331C89.2899 50.5331 93.6679 46.155 93.6679 40.7545V34.7786C93.6679 29.3781 89.2899 25 83.8893 25C81.189 25 79 27.189 79 29.8893V45.6438Z" fill="#EB8F00"/>
<path d="M15.668 45.6438C15.668 48.3441 13.479 50.5331 10.7787 50.5331C5.37807 50.5331 1.00004 46.155 1.00004 40.7545V34.7786C1.00004 29.3781 5.37807 25 10.7787 25C13.479 25 15.668 27.189 15.668 29.8893L15.668 45.6438Z" fill="#EB8F00"/>
<circle cx="63.5" cy="15.5" r="15.5" fill="black"/>
<rect x="61.6399" y="6.20001" width="3.72" height="13.64" rx="1.86" fill="#D9D9D9"/>
<rect x="61.6399" y="22.32" width="3.72" height="3.72" rx="1.86" fill="#D9D9D9"/>
</svg>
