<svg width="94" height="55" viewBox="0 0 94 55" fill="none" xmlns="http://www.w3.org/2000/svg">
<rect x="20.1426" width="54.0669" height="55" rx="10" fill="#A6A6A6"/>
<path d="M79 34.6438C79 37.3441 81.189 39.5331 83.8893 39.5331C89.2899 39.5331 93.6679 35.155 93.6679 29.7545V23.7786C93.6679 18.3781 89.2899 14 83.8893 14C81.189 14 79 16.189 79 18.8893V34.6438Z" fill="#BBBBBB"/>
<path d="M15.668 34.6438C15.668 37.3441 13.479 39.5331 10.7787 39.5331C5.37807 39.5331 1.00004 35.155 1.00004 29.7545V23.7786C1.00004 18.3781 5.37807 14 10.7787 14C13.479 14 15.668 16.189 15.668 18.8893L15.668 34.6438Z" fill="#BBBBBB"/>
</svg>
