<svg width="136" height="97" viewBox="0 0 136 97" fill="none" xmlns="http://www.w3.org/2000/svg">
<rect width="136" height="97" rx="20" fill="#DDDDDD"/>
<rect x="41.1425" y="21" width="54.0669" height="55" rx="10" fill="#FF9C01"/>
<path d="M100 55.6438C100 58.344 102.189 60.5331 104.889 60.5331C110.29 60.5331 114.668 56.155 114.668 50.7544V44.7786C114.668 39.378 110.29 35 104.889 35C102.189 35 100 37.189 100 39.8893V55.6438Z" fill="#EB8F00"/>
<path d="M36.668 55.6438C36.668 58.344 34.479 60.5331 31.7787 60.5331C26.3781 60.5331 22 56.155 22 50.7544V44.7786C22 39.378 26.3781 35 31.7787 35C34.479 35 36.668 37.189 36.668 39.8893V55.6438Z" fill="#EB8F00"/>
</svg>
