<svg width="136" height="115" viewBox="0 0 136 115" fill="none" xmlns="http://www.w3.org/2000/svg">
<rect width="136" height="115" rx="20" fill="#DDDDDD"/>
<path d="M100.07 51.0631C100.07 53.7634 102.259 55.9524 104.96 55.9524C110.36 55.9524 114.738 51.5744 114.738 46.1738V40.198C114.738 34.7974 110.36 30.4194 104.96 30.4194C102.259 30.4194 100.07 32.6084 100.07 35.3087V51.0631Z" fill="#1D9100"/>
<path d="M100.07 80.5209C100.07 83.2212 102.259 85.4102 104.96 85.4102C110.36 85.4102 114.738 81.0322 114.738 75.6316V69.6558C114.738 64.2552 110.36 59.8772 104.96 59.8772C102.259 59.8772 100.07 62.0662 100.07 64.7665V80.5209Z" fill="#1D9100"/>
<path d="M36.8694 51.0631C36.8694 53.7634 34.6804 55.9524 31.9801 55.9524C26.5795 55.9524 22.2015 51.5744 22.2015 46.1738V40.1979C22.2015 34.7974 26.5795 30.4193 31.9801 30.4193C34.6804 30.4193 36.8694 32.6083 36.8694 35.3086V51.0631Z" fill="#1D9100"/>
<path d="M36.8694 80.5209C36.8694 83.2212 34.6804 85.4102 31.9801 85.4102C26.5795 85.4102 22.2015 81.0322 22.2015 75.6316V69.6558C22.2015 64.2552 26.5795 59.8772 31.9801 59.8772C34.6804 59.8772 36.8694 62.0662 36.8694 64.7665V80.5209Z" fill="#1D9100"/>
<rect x="40.8694" y="21" width="55.2009" height="73" rx="7.84946" fill="#25BA00"/>
</svg>
