<svg width="94" height="79" viewBox="0 0 94 79" fill="none" xmlns="http://www.w3.org/2000/svg">
<path d="M78.1306 36.0631C78.1306 38.7634 80.3196 40.9525 83.0199 40.9525C88.4205 40.9525 92.7985 36.5744 92.7985 31.1738V25.198C92.7985 19.7974 88.4204 15.4194 83.0199 15.4194C80.3196 15.4194 78.1306 17.6084 78.1306 20.3087V36.0631Z" fill="#EB8F00"/>
<path d="M78.1306 65.5209C78.1306 68.2212 80.3196 70.4102 83.0199 70.4102C88.4205 70.4102 92.7985 66.0322 92.7985 60.6316V54.6558C92.7985 49.2552 88.4204 44.8772 83.0199 44.8772C80.3196 44.8772 78.1306 47.0662 78.1306 49.7665V65.5209Z" fill="#EB8F00"/>
<path d="M15.8694 36.0631C15.8694 38.7634 13.6804 40.9525 10.9801 40.9525C5.57955 40.9525 1.20151 36.5744 1.20151 31.1738V25.198C1.20151 19.7974 5.57955 15.4194 10.9801 15.4194C13.6804 15.4194 15.8694 17.6084 15.8694 20.3087L15.8694 36.0631Z" fill="#EB8F00"/>
<path d="M15.8694 65.5209C15.8694 68.2212 13.6804 70.4102 10.9801 70.4102C5.57955 70.4102 1.20151 66.0322 1.20151 60.6316V54.6558C1.20151 49.2552 5.57955 44.8772 10.9801 44.8772C13.6804 44.8772 15.8694 47.0662 15.8694 49.7665L15.8694 65.5209Z" fill="#EB8F00"/>
<rect x="19.5326" y="6" width="55.2009" height="73" rx="7.84946" fill="#FF9C01"/>
<circle cx="64.5" cy="15.5" r="15.5" fill="black"/>
<rect x="62.64" y="6.20001" width="3.72" height="13.64" rx="1.86" fill="#D9D9D9"/>
<rect x="62.64" y="22.32" width="3.72" height="3.72" rx="1.86" fill="#D9D9D9"/>
</svg>
