<svg width="94" height="73" viewBox="0 0 94 73" fill="none" xmlns="http://www.w3.org/2000/svg">
<path d="M78.1306 30.0631C78.1306 32.7634 80.3196 34.9524 83.0199 34.9524C88.4205 34.9524 92.7985 30.5744 92.7985 25.1738V19.1979C92.7985 13.7974 88.4204 9.41933 83.0199 9.41933C80.3196 9.41933 78.1306 11.6083 78.1306 14.3086V30.0631Z" fill="#BBBBBB"/>
<path d="M78.1306 59.5208C78.1306 62.2211 80.3196 64.4102 83.0199 64.4102C88.4205 64.4102 92.7985 60.0321 92.7985 54.6315V48.6557C92.7985 43.2551 88.4204 38.8771 83.0199 38.8771C80.3196 38.8771 78.1306 41.0661 78.1306 43.7664V59.5208Z" fill="#BBBBBB"/>
<path d="M15.8694 30.0631C15.8694 32.7634 13.6804 34.9524 10.9801 34.9524C5.57955 34.9524 1.20151 30.5744 1.20151 25.1738V19.1979C1.20151 13.7974 5.57955 9.41933 10.9801 9.41933C13.6804 9.41933 15.8694 11.6083 15.8694 14.3086L15.8694 30.0631Z" fill="#BBBBBB"/>
<path d="M15.8694 59.5208C15.8694 62.2211 13.6804 64.4102 10.9801 64.4102C5.57955 64.4102 1.20151 60.0321 1.20151 54.6315V48.6557C1.20151 43.2551 5.57955 38.8771 10.9801 38.8771C13.6804 38.8771 15.8694 41.0661 15.8694 43.7664L15.8694 59.5208Z" fill="#BBBBBB"/>
<rect x="19.5326" width="55.2009" height="73" rx="7.84946" fill="#A6A6A6"/>
</svg>
